# xmcd
#
# Track frame offsets:
#	150
#	15614
#	34022
#	50141
#	64368
#	78946
#	94859
#	106755
#	124087
#	136800
#	152848
#	163504
#	180805
#	195443
#	207185
#	219019
#	234036
#	250529
#
# Disc length: 3517 seconds
#
# Revision: 1
# Processed by: cddbd v1.5.2PL0 Copyright (c) Steve Scherf et al.
# Submitted via: audiograbber 1.83.01
#
DISCID=d80dbb12
DTITLE=Various Artist - Country Klanke
DYEAR=2011
DGENRE=
TTITLE0=I recall a Gypsy woman
TTITLE1=Angel of the morning
TTITLE2=Lucille
TTITLE3=Rhinestone Cowboy
TTITLE4=Delta Dawn
TTITLE5=Queen of hearts
TTITLE6=Stand by your man
TTITLE7=But time has never been kind
TTITLE8=Tulsa TimeDozi
TTITLE9=When she cries
TTITLE10=Loving arms of Tennessee
TTITLE11=Wings of a dove
TTITLE12=Jack of diamonds
TTITLE13=Only the lonely
TTITLE14=On the wings of a Nightingale
TTITLE15=Mama's hands
TTITLE16=No Charge
TTITLE17=I can't stop loving you
EXTD=RSG (Dis die een) Dubbel CD
EXTT0=Steve Hofmeyr
EXTT1=Juice Newton
EXTT2=Kenny Rogers
EXTT3=Glen Cambell
EXTT4=Tanya Tucker
EXTT5=Nadine
EXTT6=Wanda Jackson
EXTT7=Alan Ladd
EXTT8=
EXTT9=Ray Dylan
EXTT10=Barbara Ray
EXTT11=Lance James
EXTT12=Magda Greyling
EXTT13=Sonny James
EXTT14=Christo en Cobus
EXTT15=Vangie Cocker
EXTT16=Jurie Els
EXTT17=Tommy Oliver
PLAYORDER=
